<svg width="439" height="34" viewBox="0 0 439 34" fill="none" xmlns="http://www.w3.org/2000/svg">
<rect width="439" height="34" fill="#EEF866"/>
<path d="M10.464 28V8.56H14.424V25.312H18.984V28H10.464ZM20.8948 28V8.56H24.8308V28H20.8948ZM27.8078 28V8.56H36.0158V11.248H31.7678V16.504H35.3678V19.264H31.7678V28H27.8078ZM38.0031 28V8.56H46.4751V11.296H41.9631V16.456H45.4431V19.216H41.9631V25.312H46.5231V28H38.0031ZM54.5745 28V8.56H58.5105V28H54.5745ZM66.5274 28.264C65.3274 28.264 64.3274 28.048 63.5274 27.616C62.7274 27.168 62.1194 26.504 61.7034 25.624C61.3034 24.728 61.0714 23.592 61.0074 22.216L64.4154 21.64C64.4474 22.44 64.5274 23.112 64.6554 23.656C64.7994 24.184 65.0074 24.584 65.2794 24.856C65.5674 25.112 65.9194 25.24 66.3354 25.24C66.8474 25.24 67.1914 25.08 67.3674 24.76C67.5594 24.44 67.6554 24.072 67.6554 23.656C67.6554 22.84 67.4554 22.16 67.0554 21.616C66.6714 21.056 66.1594 20.496 65.5194 19.936L63.5034 18.184C62.7834 17.576 62.1914 16.888 61.7274 16.12C61.2794 15.352 61.0554 14.408 61.0554 13.288C61.0554 11.688 61.5194 10.464 62.4474 9.616C63.3914 8.752 64.6794 8.32 66.3114 8.32C67.2874 8.32 68.0874 8.48 68.7114 8.8C69.3354 9.12 69.8154 9.552 70.1514 10.096C70.5034 10.624 70.7434 11.208 70.8714 11.848C71.0154 12.472 71.1034 13.096 71.1354 13.72L67.7514 14.224C67.7194 13.632 67.6634 13.112 67.5834 12.664C67.5194 12.216 67.3754 11.864 67.1514 11.608C66.9434 11.352 66.6234 11.224 66.1914 11.224C65.7274 11.224 65.3834 11.4 65.1594 11.752C64.9354 12.088 64.8234 12.464 64.8234 12.88C64.8234 13.568 64.9754 14.136 65.2794 14.584C65.5994 15.016 66.0314 15.472 66.5754 15.952L68.5434 17.68C69.3594 18.384 70.0554 19.192 70.6314 20.104C71.2234 21 71.5194 22.112 71.5194 23.44C71.5194 24.352 71.3114 25.176 70.8954 25.912C70.4794 26.648 69.8954 27.224 69.1434 27.64C68.4074 28.056 67.5354 28.264 66.5274 28.264ZM81.4286 28V11.512H78.4286V8.56H88.3646V11.512H85.4126V28H81.4286ZM95.4114 28.264C93.9874 28.264 92.8594 28.008 92.0274 27.496C91.1954 26.984 90.5954 26.256 90.2274 25.312C89.8754 24.352 89.6994 23.208 89.6994 21.88V14.632C89.6994 13.304 89.8754 12.168 90.2274 11.224C90.5954 10.28 91.1954 9.56 92.0274 9.064C92.8594 8.568 93.9874 8.32 95.4114 8.32C96.8514 8.32 97.9874 8.576 98.8194 9.088C99.6674 9.584 100.267 10.304 100.619 11.248C100.987 12.176 101.171 13.304 101.171 14.632V21.88C101.171 23.208 100.987 24.352 100.619 25.312C100.267 26.256 99.6674 26.984 98.8194 27.496C97.9874 28.008 96.8514 28.264 95.4114 28.264ZM95.4114 25.408C95.9234 25.408 96.2994 25.296 96.5394 25.072C96.7794 24.832 96.9394 24.52 97.0194 24.136C97.0994 23.736 97.1394 23.312 97.1394 22.864V13.672C97.1394 13.224 97.0994 12.808 97.0194 12.424C96.9394 12.04 96.7794 11.736 96.5394 11.512C96.2994 11.272 95.9234 11.152 95.4114 11.152C94.9314 11.152 94.5714 11.272 94.3314 11.512C94.0914 11.736 93.9314 12.04 93.8514 12.424C93.7714 12.808 93.7314 13.224 93.7314 13.672V22.864C93.7314 23.312 93.7634 23.736 93.8274 24.136C93.9074 24.52 94.0674 24.832 94.3074 25.072C94.5474 25.296 94.9154 25.408 95.4114 25.408ZM109.24 28.264C107.816 28.264 106.688 28.008 105.856 27.496C105.024 26.984 104.424 26.256 104.056 25.312C103.704 24.352 103.528 23.208 103.528 21.88V14.632C103.528 13.304 103.704 12.168 104.056 11.224C104.424 10.28 105.024 9.56 105.856 9.064C106.688 8.568 107.816 8.32 109.24 8.32C110.68 8.32 111.816 8.576 112.648 9.088C113.496 9.584 114.096 10.304 114.448 11.248C114.816 12.176 115 13.304 115 14.632V21.88C115 23.208 114.816 24.352 114.448 25.312C114.096 26.256 113.496 26.984 112.648 27.496C111.816 28.008 110.68 28.264 109.24 28.264ZM109.24 25.408C109.752 25.408 110.128 25.296 110.368 25.072C110.608 24.832 110.768 24.52 110.848 24.136C110.928 23.736 110.968 23.312 110.968 22.864V13.672C110.968 13.224 110.928 12.808 110.848 12.424C110.768 12.04 110.608 11.736 110.368 11.512C110.128 11.272 109.752 11.152 109.24 11.152C108.76 11.152 108.4 11.272 108.16 11.512C107.92 11.736 107.76 12.04 107.68 12.424C107.6 12.808 107.56 13.224 107.56 13.672V22.864C107.56 23.312 107.592 23.736 107.656 24.136C107.736 24.52 107.896 24.832 108.136 25.072C108.376 25.296 108.744 25.408 109.24 25.408ZM128.684 28.264C127.484 28.264 126.484 28.048 125.684 27.616C124.884 27.168 124.276 26.504 123.86 25.624C123.46 24.728 123.228 23.592 123.164 22.216L126.572 21.64C126.604 22.44 126.684 23.112 126.812 23.656C126.956 24.184 127.164 24.584 127.436 24.856C127.724 25.112 128.076 25.24 128.492 25.24C129.004 25.24 129.348 25.08 129.524 24.76C129.716 24.44 129.812 24.072 129.812 23.656C129.812 22.84 129.612 22.16 129.212 21.616C128.828 21.056 128.316 20.496 127.676 19.936L125.66 18.184C124.94 17.576 124.348 16.888 123.884 16.12C123.436 15.352 123.212 14.408 123.212 13.288C123.212 11.688 123.676 10.464 124.604 9.616C125.548 8.752 126.836 8.32 128.468 8.32C129.444 8.32 130.244 8.48 130.868 8.8C131.492 9.12 131.972 9.552 132.308 10.096C132.66 10.624 132.9 11.208 133.028 11.848C133.172 12.472 133.26 13.096 133.292 13.72L129.908 14.224C129.876 13.632 129.82 13.112 129.74 12.664C129.676 12.216 129.532 11.864 129.308 11.608C129.1 11.352 128.78 11.224 128.348 11.224C127.884 11.224 127.54 11.4 127.316 11.752C127.092 12.088 126.98 12.464 126.98 12.88C126.98 13.568 127.132 14.136 127.436 14.584C127.756 15.016 128.188 15.472 128.732 15.952L130.7 17.68C131.516 18.384 132.212 19.192 132.788 20.104C133.38 21 133.676 22.112 133.676 23.44C133.676 24.352 133.468 25.176 133.052 25.912C132.636 26.648 132.052 27.224 131.3 27.64C130.564 28.056 129.692 28.264 128.684 28.264ZM135.809 28V8.56H139.769V16.552H143.201V8.56H147.161V28H143.201V19.384H139.769V28H135.809ZM155.576 28.264C154.152 28.264 153.024 28.008 152.192 27.496C151.36 26.984 150.76 26.256 150.392 25.312C150.04 24.352 149.864 23.208 149.864 21.88V14.632C149.864 13.304 150.04 12.168 150.392 11.224C150.76 10.28 151.36 9.56 152.192 9.064C153.024 8.568 154.152 8.32 155.576 8.32C157.016 8.32 158.152 8.576 158.984 9.088C159.832 9.584 160.432 10.304 160.784 11.248C161.152 12.176 161.336 13.304 161.336 14.632V21.88C161.336 23.208 161.152 24.352 160.784 25.312C160.432 26.256 159.832 26.984 158.984 27.496C158.152 28.008 157.016 28.264 155.576 28.264ZM155.576 25.408C156.088 25.408 156.464 25.296 156.704 25.072C156.944 24.832 157.104 24.52 157.184 24.136C157.264 23.736 157.304 23.312 157.304 22.864V13.672C157.304 13.224 157.264 12.808 157.184 12.424C157.104 12.04 156.944 11.736 156.704 11.512C156.464 11.272 156.088 11.152 155.576 11.152C155.095 11.152 154.736 11.272 154.496 11.512C154.256 11.736 154.096 12.04 154.016 12.424C153.936 12.808 153.896 13.224 153.896 13.672V22.864C153.896 23.312 153.928 23.736 153.992 24.136C154.072 24.52 154.232 24.832 154.472 25.072C154.712 25.296 155.08 25.408 155.576 25.408ZM163.98 28V8.56H169.02C170.332 8.56 171.452 8.712 172.38 9.016C173.324 9.304 174.044 9.824 174.54 10.576C175.052 11.328 175.308 12.368 175.308 13.696C175.308 14.496 175.236 15.208 175.092 15.832C174.964 16.44 174.724 16.976 174.372 17.44C174.036 17.888 173.556 18.248 172.932 18.52L175.62 28H171.564L169.332 19.192H167.94V28H163.98ZM167.94 16.84H169.092C169.732 16.84 170.236 16.736 170.604 16.528C170.972 16.32 171.228 16.008 171.372 15.592C171.532 15.16 171.612 14.632 171.612 14.008C171.612 13.112 171.444 12.432 171.108 11.968C170.788 11.488 170.18 11.248 169.284 11.248H167.94V16.84ZM179.655 28V11.512H176.655V8.56H186.591V11.512H183.639V28H179.655ZM194.355 28V8.56H202.563V11.248H198.315V16.504H201.915V19.264H198.315V28H194.355ZM209.974 28.264C208.55 28.264 207.422 28.008 206.59 27.496C205.758 26.984 205.158 26.256 204.79 25.312C204.438 24.352 204.262 23.208 204.262 21.88V14.632C204.262 13.304 204.438 12.168 204.79 11.224C205.158 10.28 205.758 9.56 206.59 9.064C207.422 8.568 208.55 8.32 209.974 8.32C211.414 8.32 212.55 8.576 213.382 9.088C214.23 9.584 214.83 10.304 215.182 11.248C215.55 12.176 215.734 13.304 215.734 14.632V21.88C215.734 23.208 215.55 24.352 215.182 25.312C214.83 26.256 214.23 26.984 213.382 27.496C212.55 28.008 211.414 28.264 209.974 28.264ZM209.974 25.408C210.486 25.408 210.862 25.296 211.102 25.072C211.342 24.832 211.502 24.52 211.582 24.136C211.662 23.736 211.702 23.312 211.702 22.864V13.672C211.702 13.224 211.662 12.808 211.582 12.424C211.502 12.04 211.342 11.736 211.102 11.512C210.862 11.272 210.486 11.152 209.974 11.152C209.494 11.152 209.134 11.272 208.894 11.512C208.654 11.736 208.494 12.04 208.414 12.424C208.334 12.808 208.294 13.224 208.294 13.672V22.864C208.294 23.312 208.326 23.736 208.39 24.136C208.47 24.52 208.63 24.832 208.87 25.072C209.11 25.296 209.478 25.408 209.974 25.408ZM218.378 28V8.56H223.418C224.73 8.56 225.85 8.712 226.778 9.016C227.722 9.304 228.442 9.824 228.938 10.576C229.45 11.328 229.706 12.368 229.706 13.696C229.706 14.496 229.634 15.208 229.49 15.832C229.362 16.44 229.122 16.976 228.77 17.44C228.434 17.888 227.954 18.248 227.33 18.52L230.018 28H225.962L223.73 19.192H222.338V28H218.378ZM222.338 16.84H223.49C224.13 16.84 224.634 16.736 225.002 16.528C225.37 16.32 225.626 16.008 225.77 15.592C225.93 15.16 226.01 14.632 226.01 14.008C226.01 13.112 225.842 12.432 225.506 11.968C225.186 11.488 224.578 11.248 223.682 11.248H222.338V16.84ZM243.77 28.264C242.33 28.264 241.186 27.992 240.338 27.448C239.506 26.904 238.922 26.152 238.586 25.192C238.25 24.216 238.082 23.088 238.082 21.808V14.824C238.082 13.48 238.25 12.328 238.586 11.368C238.922 10.392 239.506 9.64 240.338 9.112C241.186 8.584 242.33 8.32 243.77 8.32C245.162 8.32 246.25 8.552 247.034 9.016C247.834 9.48 248.394 10.136 248.714 10.984C249.05 11.832 249.218 12.816 249.218 13.936V15.568H245.378V13.744C245.378 13.296 245.354 12.88 245.306 12.496C245.258 12.096 245.122 11.776 244.898 11.536C244.69 11.28 244.322 11.152 243.794 11.152C243.266 11.152 242.882 11.28 242.642 11.536C242.402 11.792 242.25 12.128 242.186 12.544C242.122 12.944 242.09 13.392 242.09 13.888V22.72C242.09 23.264 242.13 23.744 242.21 24.16C242.306 24.56 242.474 24.872 242.714 25.096C242.97 25.304 243.33 25.408 243.794 25.408C244.306 25.408 244.666 25.288 244.874 25.048C245.098 24.792 245.234 24.456 245.282 24.04C245.346 23.624 245.378 23.184 245.378 22.72V20.824H249.218V22.432C249.218 23.568 249.058 24.576 248.738 25.456C248.418 26.32 247.866 27.008 247.082 27.52C246.298 28.016 245.194 28.264 243.77 28.264ZM251.636 28V8.56H256.676C257.988 8.56 259.108 8.712 260.036 9.016C260.98 9.304 261.7 9.824 262.196 10.576C262.708 11.328 262.964 12.368 262.964 13.696C262.964 14.496 262.892 15.208 262.748 15.832C262.62 16.44 262.38 16.976 262.028 17.44C261.692 17.888 261.212 18.248 260.588 18.52L263.276 28H259.22L256.988 19.192H255.596V28H251.636ZM255.596 16.84H256.748C257.388 16.84 257.892 16.736 258.26 16.528C258.628 16.32 258.884 16.008 259.028 15.592C259.188 15.16 259.268 14.632 259.268 14.008C259.268 13.112 259.1 12.432 258.764 11.968C258.444 11.488 257.836 11.248 256.94 11.248H255.596V16.84ZM264.668 28L268.436 8.56H272.828L276.572 28H272.9L272.204 23.728H269.132L268.388 28H264.668ZM269.492 21.304H271.82L270.644 13.456L269.492 21.304ZM278.542 28V8.56H284.71C285.878 8.56 286.83 8.784 287.566 9.232C288.302 9.664 288.846 10.296 289.198 11.128C289.566 11.96 289.75 12.968 289.75 14.152C289.75 15.544 289.51 16.632 289.03 17.416C288.566 18.2 287.926 18.76 287.11 19.096C286.294 19.416 285.358 19.576 284.302 19.576H282.502V28H278.542ZM282.502 16.792H283.894C284.47 16.792 284.91 16.704 285.214 16.528C285.534 16.336 285.75 16.04 285.862 15.64C285.974 15.24 286.03 14.728 286.03 14.104C286.03 13.512 285.982 13.016 285.886 12.616C285.806 12.216 285.614 11.904 285.31 11.68C285.006 11.456 284.526 11.344 283.87 11.344H282.502V16.792ZM291.784 28V8.56H297.952C299.12 8.56 300.072 8.784 300.808 9.232C301.544 9.664 302.088 10.296 302.44 11.128C302.808 11.96 302.992 12.968 302.992 14.152C302.992 15.544 302.752 16.632 302.272 17.416C301.808 18.2 301.168 18.76 300.352 19.096C299.536 19.416 298.6 19.576 297.544 19.576H295.744V28H291.784ZM295.744 16.792H297.136C297.712 16.792 298.152 16.704 298.456 16.528C298.776 16.336 298.992 16.04 299.104 15.64C299.216 15.24 299.272 14.728 299.272 14.104C299.272 13.512 299.224 13.016 299.128 12.616C299.048 12.216 298.856 11.904 298.552 11.68C298.248 11.456 297.768 11.344 297.112 11.344H295.744V16.792ZM307.571 28V20.296L303.779 8.56H307.499L309.587 15.4L311.531 8.56H315.131L311.387 20.296V28H307.571ZM321.616 28.504V25.72C322.08 25.72 322.472 25.696 322.792 25.648C323.112 25.584 323.36 25.48 323.536 25.336C323.712 25.176 323.84 24.952 323.92 24.664C324 24.376 324.04 24 324.04 23.536V8.56H328V23.704C328 24.776 327.872 25.672 327.616 26.392C327.36 27.096 326.904 27.624 326.248 27.976C325.608 28.328 324.704 28.504 323.536 28.504H321.616ZM336.349 28.264C334.925 28.264 333.797 28.008 332.965 27.496C332.133 26.984 331.533 26.256 331.165 25.312C330.813 24.352 330.637 23.208 330.637 21.88V14.632C330.637 13.304 330.813 12.168 331.165 11.224C331.533 10.28 332.133 9.56 332.965 9.064C333.797 8.568 334.925 8.32 336.349 8.32C337.789 8.32 338.925 8.576 339.757 9.088C340.605 9.584 341.205 10.304 341.557 11.248C341.925 12.176 342.109 13.304 342.109 14.632V21.88C342.109 23.208 341.925 24.352 341.557 25.312C341.205 26.256 340.605 26.984 339.757 27.496C338.925 28.008 337.789 28.264 336.349 28.264ZM336.349 25.408C336.861 25.408 337.237 25.296 337.477 25.072C337.717 24.832 337.877 24.52 337.957 24.136C338.037 23.736 338.077 23.312 338.077 22.864V13.672C338.077 13.224 338.037 12.808 337.957 12.424C337.877 12.04 337.717 11.736 337.477 11.512C337.237 11.272 336.861 11.152 336.349 11.152C335.869 11.152 335.509 11.272 335.269 11.512C335.029 11.736 334.869 12.04 334.789 12.424C334.709 12.808 334.669 13.224 334.669 13.672V22.864C334.669 23.312 334.701 23.736 334.765 24.136C334.845 24.52 335.005 24.832 335.245 25.072C335.485 25.296 335.853 25.408 336.349 25.408ZM344.753 28V8.56H349.673C350.521 8.56 351.305 8.632 352.025 8.776C352.745 8.92 353.377 9.176 353.921 9.544C354.481 9.912 354.905 10.424 355.193 11.08C355.497 11.72 355.649 12.56 355.649 13.6C355.649 14.384 355.537 15.056 355.313 15.616C355.089 16.16 354.769 16.592 354.353 16.912C353.937 17.232 353.425 17.448 352.817 17.56C353.569 17.672 354.201 17.928 354.713 18.328C355.225 18.728 355.609 19.256 355.865 19.912C356.121 20.568 356.249 21.36 356.249 22.288C356.249 23.264 356.121 24.112 355.865 24.832C355.625 25.552 355.265 26.144 354.785 26.608C354.305 27.072 353.713 27.424 353.009 27.664C352.305 27.888 351.489 28 350.561 28H344.753ZM348.713 25.216H349.817C350.809 25.216 351.489 24.968 351.857 24.472C352.241 23.976 352.433 23.232 352.433 22.24C352.433 21.472 352.345 20.864 352.169 20.416C351.993 19.952 351.705 19.616 351.305 19.408C350.921 19.184 350.401 19.072 349.745 19.072H348.713V25.216ZM348.713 16.408H349.697C350.385 16.408 350.905 16.312 351.257 16.12C351.609 15.912 351.849 15.608 351.977 15.208C352.121 14.792 352.193 14.288 352.193 13.696C352.193 13.104 352.089 12.632 351.881 12.28C351.689 11.912 351.385 11.648 350.969 11.488C350.569 11.328 350.057 11.248 349.433 11.248H348.713V16.408ZM363.574 28.264C362.374 28.264 361.374 28.048 360.574 27.616C359.774 27.168 359.166 26.504 358.75 25.624C358.35 24.728 358.118 23.592 358.054 22.216L361.462 21.64C361.494 22.44 361.574 23.112 361.702 23.656C361.846 24.184 362.054 24.584 362.326 24.856C362.614 25.112 362.966 25.24 363.382 25.24C363.894 25.24 364.238 25.08 364.414 24.76C364.606 24.44 364.702 24.072 364.702 23.656C364.702 22.84 364.502 22.16 364.102 21.616C363.718 21.056 363.206 20.496 362.566 19.936L360.55 18.184C359.83 17.576 359.238 16.888 358.774 16.12C358.326 15.352 358.102 14.408 358.102 13.288C358.102 11.688 358.566 10.464 359.494 9.616C360.438 8.752 361.726 8.32 363.358 8.32C364.334 8.32 365.134 8.48 365.758 8.8C366.382 9.12 366.862 9.552 367.198 10.096C367.55 10.624 367.79 11.208 367.918 11.848C368.062 12.472 368.15 13.096 368.182 13.72L364.798 14.224C364.766 13.632 364.71 13.112 364.63 12.664C364.566 12.216 364.422 11.864 364.198 11.608C363.99 11.352 363.67 11.224 363.238 11.224C362.774 11.224 362.43 11.4 362.206 11.752C361.982 12.088 361.87 12.464 361.87 12.88C361.87 13.568 362.022 14.136 362.326 14.584C362.646 15.016 363.078 15.472 363.622 15.952L365.59 17.68C366.406 18.384 367.102 19.192 367.678 20.104C368.27 21 368.566 22.112 368.566 23.44C368.566 24.352 368.358 25.176 367.942 25.912C367.526 26.648 366.942 27.224 366.19 27.64C365.454 28.056 364.582 28.264 363.574 28.264Z" fill="#E94F1D"/>
<path d="M404.914 11.4351L413.271 7.95632L409.29 15.2865L418 18.0171L409.28 20.7307L413.242 28.0694L404.894 24.5736L401.785 32.2223L398.694 24.565L390.337 28.0438L394.318 20.7137L385.608 17.983L394.328 15.2694L390.366 7.93072L398.714 11.4265L401.823 3.77783L404.914 11.4351Z" fill="#E94F1D"/>
</svg>
