<svg width="439" height="34" viewBox="0 0 439 34" fill="none" xmlns="http://www.w3.org/2000/svg">
<rect width="439" height="34" fill="#EEF866"/>
<path d="M10.464 28V8.56H14.424V25.312H18.984V28H10.464ZM20.8948 28V8.56H24.8308V28H20.8948ZM27.8078 28V8.56H36.0158V11.248H31.7678V16.504H35.3678V19.264H31.7678V28H27.8078ZM38.0031 28V8.56H46.4751V11.296H41.9631V16.456H45.4431V19.216H41.9631V25.312H46.5231V28H38.0031ZM54.5745 28V8.56H58.5105V28H54.5745ZM66.5274 28.264C65.3274 28.264 64.3274 28.048 63.5274 27.616C62.7274 27.168 62.1194 26.504 61.7034 25.624C61.3034 24.728 61.0714 23.592 61.0074 22.216L64.4154 21.64C64.4474 22.44 64.5274 23.112 64.6554 23.656C64.7994 24.184 65.0074 24.584 65.2794 24.856C65.5674 25.112 65.9194 25.24 66.3354 25.24C66.8474 25.24 67.1914 25.08 67.3674 24.76C67.5594 24.44 67.6554 24.072 67.6554 23.656C67.6554 22.84 67.4554 22.16 67.0554 21.616C66.6714 21.056 66.1594 20.496 65.5194 19.936L63.5034 18.184C62.7834 17.576 62.1914 16.888 61.7274 16.12C61.2794 15.352 61.0554 14.408 61.0554 13.288C61.0554 11.688 61.5194 10.464 62.4474 9.616C63.3914 8.752 64.6794 8.32 66.3114 8.32C67.2874 8.32 68.0874 8.48 68.7114 8.8C69.3354 9.12 69.8154 9.552 70.1514 10.096C70.5034 10.624 70.7434 11.208 70.8714 11.848C71.0154 12.472 71.1034 13.096 71.1354 13.72L67.7514 14.224C67.7194 13.632 67.6634 13.112 67.5834 12.664C67.5194 12.216 67.3754 11.864 67.1514 11.608C66.9434 11.352 66.6234 11.224 66.1914 11.224C65.7274 11.224 65.3834 11.4 65.1594 11.752C64.9354 12.088 64.8234 12.464 64.8234 12.88C64.8234 13.568 64.9754 14.136 65.2794 14.584C65.5994 15.016 66.0314 15.472 66.5754 15.952L68.5434 17.68C69.3594 18.384 70.0554 19.192 70.6314 20.104C71.2234 21 71.5194 22.112 71.5194 23.44C71.5194 24.352 71.3114 25.176 70.8954 25.912C70.4794 26.648 69.8954 27.224 69.1434 27.64C68.4074 28.056 67.5354 28.264 66.5274 28.264ZM81.4286 28V11.512H78.4286V8.56H88.3646V11.512H85.4126V28H81.4286ZM95.4114 28.264C93.9874 28.264 92.8594 28.008 92.0274 27.496C91.1954 26.984 90.5954 26.256 90.2274 25.312C89.8754 24.352 89.6994 23.208 89.6994 21.88V14.632C89.6994 13.304 89.8754 12.168 90.2274 11.224C90.5954 10.28 91.1954 9.56 92.0274 9.064C92.8594 8.568 93.9874 8.32 95.4114 8.32C96.8514 8.32 97.9874 8.576 98.8194 9.088C99.6674 9.584 100.267 10.304 100.619 11.248C100.987 12.176 101.171 13.304 101.171 14.632V21.88C101.171 23.208 100.987 24.352 100.619 25.312C100.267 26.256 99.6674 26.984 98.8194 27.496C97.9874 28.008 96.8514 28.264 95.4114 28.264ZM95.4114 25.408C95.9234 25.408 96.2994 25.296 96.5394 25.072C96.7794 24.832 96.9394 24.52 97.0194 24.136C97.0994 23.736 97.1394 23.312 97.1394 22.864V13.672C97.1394 13.224 97.0994 12.808 97.0194 12.424C96.9394 12.04 96.7794 11.736 96.5394 11.512C96.2994 11.272 95.9234 11.152 95.4114 11.152C94.9314 11.152 94.5714 11.272 94.3314 11.512C94.0914 11.736 93.9314 12.04 93.8514 12.424C93.7714 12.808 93.7314 13.224 93.7314 13.672V22.864C93.7314 23.312 93.7634 23.736 93.8274 24.136C93.9074 24.52 94.0674 24.832 94.3074 25.072C94.5474 25.296 94.9154 25.408 95.4114 25.408ZM109.24 28.264C107.816 28.264 106.688 28.008 105.856 27.496C105.024 26.984 104.424 26.256 104.056 25.312C103.704 24.352 103.528 23.208 103.528 21.88V14.632C103.528 13.304 103.704 12.168 104.056 11.224C104.424 10.28 105.024 9.56 105.856 9.064C106.688 8.568 107.816 8.32 109.24 8.32C110.68 8.32 111.816 8.576 112.648 9.088C113.496 9.584 114.096 10.304 114.448 11.248C114.816 12.176 115 13.304 115 14.632V21.88C115 23.208 114.816 24.352 114.448 25.312C114.096 26.256 113.496 26.984 112.648 27.496C111.816 28.008 110.68 28.264 109.24 28.264ZM109.24 25.408C109.752 25.408 110.128 25.296 110.368 25.072C110.608 24.832 110.768 24.52 110.848 24.136C110.928 23.736 110.968 23.312 110.968 22.864V13.672C110.968 13.224 110.928 12.808 110.848 12.424C110.768 12.04 110.608 11.736 110.368 11.512C110.128 11.272 109.752 11.152 109.24 11.152C108.76 11.152 108.4 11.272 108.16 11.512C107.92 11.736 107.76 12.04 107.68 12.424C107.6 12.808 107.56 13.224 107.56 13.672V22.864C107.56 23.312 107.592 23.736 107.656 24.136C107.736 24.52 107.896 24.832 108.136 25.072C108.376 25.296 108.744 25.408 109.24 25.408ZM128.684 28.264C127.484 28.264 126.484 28.048 125.684 27.616C124.884 27.168 124.276 26.504 123.86 25.624C123.46 24.728 123.228 23.592 123.164 22.216L126.572 21.64C126.604 22.44 126.684 23.112 126.812 23.656C126.956 24.184 127.164 24.584 127.436 24.856C127.724 25.112 128.076 25.24 128.492 25.24C129.004 25.24 129.348 25.08 129.524 24.76C129.716 24.44 129.812 24.072 129.812 23.656C129.812 22.84 129.612 22.16 129.212 21.616C128.828 21.056 128.316 20.496 127.676 19.936L125.66 18.184C124.94 17.576 124.348 16.888 123.884 16.12C123.436 15.352 123.212 14.408 123.212 13.288C123.212 11.688 123.676 10.464 124.604 9.616C125.548 8.752 126.836 8.32 128.468 8.32C129.444 8.32 130.244 8.48 130.868 8.8C131.492 9.12 131.972 9.552 132.308 10.096C132.66 10.624 132.9 11.208 133.028 11.848C133.172 12.472 133.26 13.096 133.292 13.72L129.908 14.224C129.876 13.632 129.82 13.112 129.74 12.664C129.676 12.216 129.532 11.864 129.308 11.608C129.1 11.352 128.78 11.224 128.348 11.224C127.884 11.224 127.54 11.4 127.316 11.752C127.092 12.088 126.98 12.464 126.98 12.88C126.98 13.568 127.132 14.136 127.436 14.584C127.756 15.016 128.188 15.472 128.732 15.952L130.7 17.68C131.516 18.384 132.212 19.192 132.788 20.104C133.38 21 133.676 22.112 133.676 23.44C133.676 24.352 133.468 25.176 133.052 25.912C132.636 26.648 132.052 27.224 131.3 27.64C130.564 28.056 129.692 28.264 128.684 28.264ZM135.809 28V8.56H139.769V16.552H143.201V8.56H147.161V28H143.201V19.384H139.769V28H135.809ZM155.576 28.264C154.152 28.264 153.024 28.008 152.192 27.496C151.36 26.984 150.76 26.256 150.392 25.312C150.04 24.352 149.864 23.208 149.864 21.88V14.632C149.864 13.304 150.04 12.168 150.392 11.224C150.76 10.28 151.36 9.56 152.192 9.064C153.024 8.568 154.152 8.32 155.576 8.32C157.016 8.32 158.152 8.576 158.984 9.088C159.832 9.584 160.432 10.304 160.784 11.248C161.152 12.176 161.336 13.304 161.336 14.632V21.88C161.336 23.208 161.152 24.352 160.784 25.312C160.432 26.256 159.832 26.984 158.984 27.496C158.152 28.008 157.016 28.264 155.576 28.264ZM155.576 25.408C156.088 25.408 156.464 25.296 156.704 25.072C156.944 24.832 157.104 24.52 157.184 24.136C157.264 23.736 157.304 23.312 157.304 22.864V13.672C157.304 13.224 157.264 12.808 157.184 12.424C157.104 12.04 156.944 11.736 156.704 11.512C156.464 11.272 156.088 11.152 155.576 11.152C155.095 11.152 154.736 11.272 154.496 11.512C154.256 11.736 154.096 12.04 154.016 12.424C153.936 12.808 153.896 13.224 153.896 13.672V22.864C153.896 23.312 153.928 23.736 153.992 24.136C154.072 24.52 154.232 24.832 154.472 25.072C154.712 25.296 155.08 25.408 155.576 25.408ZM163.98 28V8.56H169.02C170.332 8.56 171.452 8.712 172.38 9.016C173.324 9.304 174.044 9.824 174.54 10.576C175.052 11.328 175.308 12.368 175.308 13.696C175.308 14.496 175.236 15.208 175.092 15.832C174.964 16.44 174.724 16.976 174.372 17.44C174.036 17.888 173.556 18.248 172.932 18.52L175.62 28H171.564L169.332 19.192H167.94V28H163.98ZM167.94 16.84H169.092C169.732 16.84 170.236 16.736 170.604 16.528C170.972 16.32 171.228 16.008 171.372 15.592C171.532 15.16 171.612 14.632 171.612 14.008C171.612 13.112 171.444 12.432 171.108 11.968C170.788 11.488 170.18 11.248 169.284 11.248H167.94V16.84ZM179.655 28V11.512H176.655V8.56H186.591V11.512H183.639V28H179.655ZM196.179 28V11.512H193.179V8.56H203.115V11.512H200.163V28H196.179ZM210.161 28.264C208.737 28.264 207.609 28.008 206.777 27.496C205.945 26.984 205.345 26.256 204.977 25.312C204.625 24.352 204.449 23.208 204.449 21.88V14.632C204.449 13.304 204.625 12.168 204.977 11.224C205.345 10.28 205.945 9.56 206.777 9.064C207.609 8.568 208.737 8.32 210.161 8.32C211.601 8.32 212.737 8.576 213.569 9.088C214.417 9.584 215.017 10.304 215.369 11.248C215.737 12.176 215.921 13.304 215.921 14.632V21.88C215.921 23.208 215.737 24.352 215.369 25.312C215.017 26.256 214.417 26.984 213.569 27.496C212.737 28.008 211.601 28.264 210.161 28.264ZM210.161 25.408C210.673 25.408 211.049 25.296 211.289 25.072C211.529 24.832 211.689 24.52 211.769 24.136C211.849 23.736 211.889 23.312 211.889 22.864V13.672C211.889 13.224 211.849 12.808 211.769 12.424C211.689 12.04 211.529 11.736 211.289 11.512C211.049 11.272 210.673 11.152 210.161 11.152C209.681 11.152 209.321 11.272 209.081 11.512C208.841 11.736 208.681 12.04 208.601 12.424C208.521 12.808 208.481 13.224 208.481 13.672V22.864C208.481 23.312 208.513 23.736 208.577 24.136C208.657 24.52 208.817 24.832 209.057 25.072C209.297 25.296 209.665 25.408 210.161 25.408ZM224.566 28V8.56H233.038V11.296H228.526V16.456H232.006V19.216H228.526V25.312H233.086V28H224.566ZM234.129 28L237.897 8.56H242.289L246.033 28H242.361L241.665 23.728H238.593L237.849 28H234.129ZM238.953 21.304H241.281L240.105 13.456L238.953 21.304ZM248.843 28V11.512H245.843V8.56H255.779V11.512H252.827V28H248.843ZM262.366 28.504V25.72C262.83 25.72 263.222 25.696 263.542 25.648C263.862 25.584 264.11 25.48 264.286 25.336C264.462 25.176 264.59 24.952 264.67 24.664C264.75 24.376 264.79 24 264.79 23.536V8.56H268.75V23.704C268.75 24.776 268.622 25.672 268.366 26.392C268.11 27.096 267.654 27.624 266.998 27.976C266.358 28.328 265.454 28.504 264.286 28.504H262.366ZM277.147 28.264C275.675 28.264 274.531 28.016 273.715 27.52C272.899 27.008 272.323 26.28 271.987 25.336C271.667 24.376 271.507 23.216 271.507 21.856V8.56H275.419V22.408C275.419 22.888 275.451 23.36 275.515 23.824C275.595 24.288 275.755 24.664 275.995 24.952C276.251 25.24 276.635 25.384 277.147 25.384C277.675 25.384 278.059 25.24 278.299 24.952C278.555 24.664 278.715 24.288 278.779 23.824C278.843 23.36 278.875 22.888 278.875 22.408V8.56H282.787V21.856C282.787 23.216 282.619 24.376 282.283 25.336C281.963 26.28 281.395 27.008 280.579 27.52C279.763 28.016 278.619 28.264 277.147 28.264ZM290.59 28.264C289.39 28.264 288.39 28.048 287.59 27.616C286.79 27.168 286.182 26.504 285.766 25.624C285.366 24.728 285.134 23.592 285.07 22.216L288.478 21.64C288.51 22.44 288.59 23.112 288.718 23.656C288.862 24.184 289.07 24.584 289.342 24.856C289.63 25.112 289.982 25.24 290.398 25.24C290.91 25.24 291.254 25.08 291.43 24.76C291.622 24.44 291.718 24.072 291.718 23.656C291.718 22.84 291.518 22.16 291.118 21.616C290.734 21.056 290.222 20.496 289.582 19.936L287.566 18.184C286.846 17.576 286.254 16.888 285.79 16.12C285.342 15.352 285.118 14.408 285.118 13.288C285.118 11.688 285.582 10.464 286.51 9.616C287.454 8.752 288.742 8.32 290.374 8.32C291.35 8.32 292.15 8.48 292.774 8.8C293.398 9.12 293.878 9.552 294.214 10.096C294.566 10.624 294.806 11.208 294.934 11.848C295.078 12.472 295.166 13.096 295.198 13.72L291.814 14.224C291.782 13.632 291.726 13.112 291.646 12.664C291.582 12.216 291.438 11.864 291.214 11.608C291.006 11.352 290.686 11.224 290.254 11.224C289.79 11.224 289.446 11.4 289.222 11.752C288.998 12.088 288.886 12.464 288.886 12.88C288.886 13.568 289.038 14.136 289.342 14.584C289.662 15.016 290.094 15.472 290.638 15.952L292.606 17.68C293.422 18.384 294.118 19.192 294.694 20.104C295.286 21 295.582 22.112 295.582 23.44C295.582 24.352 295.374 25.176 294.958 25.912C294.542 26.648 293.958 27.224 293.206 27.64C292.47 28.056 291.598 28.264 290.59 28.264ZM299.491 28V11.512H296.491V8.56H306.427V11.512H303.475V28H299.491ZM319.231 28.264C318.031 28.264 317.031 28.048 316.231 27.616C315.431 27.168 314.823 26.504 314.407 25.624C314.007 24.728 313.775 23.592 313.711 22.216L317.119 21.64C317.151 22.44 317.231 23.112 317.359 23.656C317.503 24.184 317.711 24.584 317.983 24.856C318.271 25.112 318.623 25.24 319.039 25.24C319.551 25.24 319.895 25.08 320.071 24.76C320.263 24.44 320.359 24.072 320.359 23.656C320.359 22.84 320.159 22.16 319.759 21.616C319.375 21.056 318.863 20.496 318.223 19.936L316.207 18.184C315.487 17.576 314.895 16.888 314.431 16.12C313.983 15.352 313.759 14.408 313.759 13.288C313.759 11.688 314.223 10.464 315.151 9.616C316.095 8.752 317.383 8.32 319.015 8.32C319.991 8.32 320.791 8.48 321.415 8.8C322.039 9.12 322.519 9.552 322.855 10.096C323.207 10.624 323.447 11.208 323.575 11.848C323.719 12.472 323.807 13.096 323.839 13.72L320.455 14.224C320.423 13.632 320.367 13.112 320.287 12.664C320.223 12.216 320.079 11.864 319.855 11.608C319.647 11.352 319.327 11.224 318.895 11.224C318.431 11.224 318.087 11.4 317.863 11.752C317.639 12.088 317.527 12.464 317.527 12.88C317.527 13.568 317.679 14.136 317.983 14.584C318.303 15.016 318.735 15.472 319.279 15.952L321.247 17.68C322.063 18.384 322.759 19.192 323.335 20.104C323.927 21 324.223 22.112 324.223 23.44C324.223 24.352 324.015 25.176 323.599 25.912C323.183 26.648 322.599 27.224 321.847 27.64C321.111 28.056 320.239 28.264 319.231 28.264ZM325.207 28L328.975 8.56H333.367L337.111 28H333.439L332.743 23.728H329.671L328.927 28H325.207ZM330.031 21.304H332.359L331.183 13.456L330.031 21.304ZM339.081 28V8.56H343.041V25.312H347.601V28H339.081ZM348.504 28L352.272 8.56H356.664L360.408 28H356.736L356.04 23.728H352.968L352.224 28H348.504ZM353.328 21.304H355.656L354.48 13.456L353.328 21.304ZM362.378 28V8.56H367.13C368.778 8.56 370.058 8.776 370.97 9.208C371.898 9.624 372.554 10.288 372.938 11.2C373.322 12.096 373.514 13.248 373.514 14.656V21.736C373.514 23.176 373.322 24.36 372.938 25.288C372.554 26.216 371.906 26.904 370.994 27.352C370.098 27.784 368.842 28 367.226 28H362.378ZM366.338 25.24H367.178C367.914 25.24 368.434 25.128 368.738 24.904C369.058 24.664 369.258 24.32 369.338 23.872C369.418 23.408 369.458 22.84 369.458 22.168V14.152C369.458 13.48 369.402 12.944 369.29 12.544C369.194 12.128 368.986 11.824 368.666 11.632C368.362 11.44 367.858 11.344 367.154 11.344H366.338V25.24ZM381.176 28.264C379.976 28.264 378.976 28.048 378.176 27.616C377.376 27.168 376.768 26.504 376.352 25.624C375.952 24.728 375.72 23.592 375.656 22.216L379.064 21.64C379.096 22.44 379.176 23.112 379.304 23.656C379.448 24.184 379.656 24.584 379.928 24.856C380.216 25.112 380.568 25.24 380.984 25.24C381.496 25.24 381.84 25.08 382.016 24.76C382.208 24.44 382.304 24.072 382.304 23.656C382.304 22.84 382.104 22.16 381.704 21.616C381.32 21.056 380.808 20.496 380.168 19.936L378.152 18.184C377.432 17.576 376.84 16.888 376.376 16.12C375.928 15.352 375.704 14.408 375.704 13.288C375.704 11.688 376.168 10.464 377.096 9.616C378.04 8.752 379.328 8.32 380.96 8.32C381.936 8.32 382.736 8.48 383.36 8.8C383.984 9.12 384.464 9.552 384.8 10.096C385.152 10.624 385.392 11.208 385.52 11.848C385.664 12.472 385.752 13.096 385.784 13.72L382.4 14.224C382.368 13.632 382.312 13.112 382.232 12.664C382.168 12.216 382.024 11.864 381.8 11.608C381.592 11.352 381.272 11.224 380.84 11.224C380.376 11.224 380.032 11.4 379.808 11.752C379.584 12.088 379.472 12.464 379.472 12.88C379.472 13.568 379.624 14.136 379.928 14.584C380.248 15.016 380.68 15.472 381.224 15.952L383.192 17.68C384.008 18.384 384.704 19.192 385.28 20.104C385.872 21 386.168 22.112 386.168 23.44C386.168 24.352 385.96 25.176 385.544 25.912C385.128 26.648 384.544 27.224 383.792 27.64C383.056 28.056 382.184 28.264 381.176 28.264Z" fill="#E94F1D"/>
<path d="M419.914 11.4351L428.271 7.95632L424.29 15.2865L433 18.0171L424.28 20.7307L428.242 28.0694L419.894 24.5736L416.785 32.2223L413.694 24.565L405.337 28.0438L409.318 20.7137L400.608 17.983L409.328 15.2694L405.366 7.93072L413.714 11.4265L416.823 3.77783L419.914 11.4351Z" fill="#E94F1D"/>
</svg>
