<svg width="128" height="126" viewBox="0 0 128 126" fill="none" xmlns="http://www.w3.org/2000/svg">
<path d="M64.0027 0L78.8201 24.2624L105.774 15.1951L101.523 43.3064L128 53.6783L106.668 72.4787L120.283 97.4394L91.8502 98.1323L86.2287 126L64.0027 108.266L41.7713 126L36.1498 98.1323L7.71737 97.4394L21.3324 72.4787L0 53.6783L26.4773 43.3064L22.226 15.1951L49.1854 24.2624L64.0027 0Z" fill="#EEF866"/>
<path d="M43.2655 68.6984L48.297 49.9208L50.9629 50.6351L52.5144 61.5361L55.1357 51.7532L58.2885 52.598L53.2571 71.3756L50.707 70.6923L49.3171 59.1886L46.5342 69.5742L43.2655 68.6984ZM56.1018 72.1378L61.1332 53.3602L69.3166 55.553L68.6084 58.1957L64.2502 57.0279L62.9147 62.0121L66.2761 62.9128L65.5617 65.5788L62.2003 64.6781L60.6226 70.5664L65.0272 71.7466L64.3315 74.343L56.1018 72.1378ZM67.959 75.315L70.5563 55.8851L73.8018 56.7548L72.0252 68.5778L76.7397 57.5668L79.3129 58.2563L77.9661 70.1448L82.3328 59.0407L85.532 59.8979L78.0896 78.0295L74.8441 77.1598L76.1993 64.7766L71.274 76.2032L67.959 75.315Z" fill="#EE4A1E"/>
</svg>
