<svg width="179" height="124" viewBox="0 0 179 124" fill="none" xmlns="http://www.w3.org/2000/svg">
<path d="M2.24219 122.063L2.24219 2.06323L177.493 2.06323V122.063H2.24219Z" fill="white" stroke="black" stroke-width="3"/>
<path d="M26.8548 52.9165C24.2782 52.9165 22.2399 52.455 20.7401 51.5321C19.2402 50.6091 18.1634 49.2887 17.5097 47.5581C16.8559 45.8404 16.5354 43.7765 16.5354 41.3793V28.2781C16.5354 25.8809 16.8559 23.8298 17.5097 22.1249C18.1634 20.4199 19.2402 19.1124 20.7401 18.2278C22.2399 17.3305 24.2782 16.8818 26.8548 16.8818C29.4315 16.8818 31.521 17.3433 33.0337 18.2535C34.5463 19.1637 35.636 20.4712 36.2898 22.1505C36.9435 23.8298 37.264 25.8937 37.264 28.2909V41.3921C37.264 43.7893 36.9435 45.8532 36.2898 47.5709C35.636 49.2887 34.5592 50.6091 33.0337 51.5449C31.521 52.4679 29.4571 52.9294 26.8548 52.9294V52.9165ZM26.8548 47.7504C27.7778 47.7504 28.4572 47.5453 28.8931 47.1223C29.3289 46.6992 29.611 46.1352 29.7648 45.4301C29.9058 44.7251 29.9827 43.9688 29.9827 43.1483V26.5347C29.9827 25.7271 29.9058 24.9707 29.7648 24.2785C29.6238 23.5863 29.3289 23.0222 28.8931 22.612C28.4572 22.189 27.7778 21.9839 26.8548 21.9839C25.9831 21.9839 25.3422 22.189 24.9063 22.612C24.4705 23.035 24.1884 23.5863 24.0346 24.2785C23.8936 24.9707 23.8167 25.7271 23.8167 26.5347V43.1483C23.8167 43.9559 23.8808 44.7123 24.009 45.4301C24.1372 46.1352 24.4192 46.6992 24.855 47.1223C25.2909 47.5453 25.9575 47.7504 26.8548 47.7504Z" fill="black"/>
<path d="M40.7379 52.4423V17.3049H49.8395C52.2111 17.3049 54.2365 17.5741 55.9286 18.1125C57.6208 18.6509 58.9155 19.5996 59.8257 20.9584C60.7358 22.3172 61.1973 24.2016 61.1973 26.5988C61.1973 28.0474 61.0691 29.3293 60.8256 30.4318C60.582 31.547 60.1462 32.5085 59.5308 33.3417C58.9027 34.1621 58.031 34.8287 56.9029 35.3159L61.7614 52.4423H54.4288L50.3908 36.5209H47.8782V52.4423H40.7251H40.7379ZM47.891 32.2777H49.9677C51.1215 32.2777 52.0316 32.0854 52.6982 31.7137C53.3648 31.3419 53.8263 30.7651 54.1083 29.9959C54.3775 29.2268 54.5185 28.2781 54.5185 27.1501C54.5185 25.5348 54.2237 24.2914 53.634 23.4453C53.0443 22.5864 51.9291 22.1634 50.3138 22.1634H47.891V32.2649V32.2777Z" fill="black"/>
<path d="M73.4399 52.9551C71.0684 52.9551 69.184 52.4552 67.7995 51.4553C66.415 50.4554 65.4151 49.0453 64.8254 47.1993C64.2358 45.3662 63.9409 43.2254 63.9409 40.8025V29.0474C63.9409 26.5348 64.2486 24.3684 64.8511 22.548C65.4536 20.7277 66.5176 19.3304 68.0431 18.3433C69.5557 17.3563 71.6196 16.8691 74.2219 16.8691C76.8242 16.8691 78.7214 17.2922 80.1828 18.1254C81.6442 18.9587 82.6954 20.1508 83.3235 21.6763C83.9645 23.2146 84.2721 25.035 84.2721 27.1373V29.1755H77.2857V26.7014C77.2857 25.7785 77.2344 24.958 77.119 24.253C77.0037 23.5479 76.7345 22.9839 76.3114 22.5865C75.8884 22.1763 75.2218 21.984 74.2988 21.984C73.3758 21.984 72.6451 22.2276 72.2221 22.7275C71.7863 23.2146 71.517 23.8428 71.4017 24.6119C71.2863 25.3811 71.2222 26.1887 71.2222 27.0604V42.6357C71.2222 43.6228 71.3119 44.4945 71.4786 45.2764C71.6581 46.0584 71.9785 46.6609 72.4528 47.0968C72.9272 47.5326 73.6194 47.7505 74.5167 47.7505C75.4141 47.7505 76.1063 47.5198 76.5934 47.0583C77.0806 46.5968 77.4267 45.9687 77.6062 45.1739C77.7984 44.3791 77.8882 43.4817 77.8882 42.469V38.7387H74.4655V34.4058H84.349V52.4424H79.67L79.2342 49.276C78.7727 50.34 78.0805 51.2245 77.1575 51.9168C76.2345 52.609 74.991 52.9551 73.4271 52.9551H73.4399Z" fill="black"/>
<path d="M86.2202 52.4424L93.0272 17.3179H100.962L107.731 52.4424H101.09L99.8342 44.7253H94.2835L92.9375 52.4424H86.2202ZM94.9373 40.3411H99.1419L97.014 26.1631L94.9373 40.3411Z" fill="black"/>
<path d="M109.987 52.4423V17.3049H114.974L122.781 35.6107V17.3049H128.677V52.4295H123.909L116.102 32.9956V52.4295H109.987V52.4423Z" fill="black"/>
<path d="M132.805 52.4423V17.3049H139.92V52.4295H132.805V52.4423Z" fill="black"/>
<path d="M153.752 52.9168C151.149 52.9168 149.086 52.4297 147.573 51.4426C146.06 50.4555 144.996 49.0967 144.381 47.3404C143.778 45.597 143.471 43.5588 143.471 41.2513V28.6373C143.471 26.2144 143.778 24.1249 144.381 22.3687C144.983 20.6253 146.047 19.2664 147.573 18.3178C149.086 17.3692 151.149 16.8821 153.752 16.8821C156.354 16.8821 158.238 17.3051 159.674 18.1384C161.11 18.9716 162.123 20.1638 162.712 21.6893C163.302 23.2276 163.597 24.9966 163.597 27.022V29.9705H156.662V26.6759C156.662 25.8683 156.623 25.112 156.533 24.3941C156.444 23.6891 156.213 23.1122 155.816 22.6635C155.431 22.2149 154.752 21.9969 153.803 21.9969C152.854 21.9969 152.149 22.2277 151.726 22.6892C151.29 23.1507 151.021 23.7532 150.906 24.4839C150.79 25.2145 150.739 26.035 150.739 26.9323V42.8922C150.739 43.8793 150.816 44.7382 150.983 45.4688C151.137 46.1995 151.444 46.7636 151.893 47.161C152.342 47.5455 152.983 47.7507 153.816 47.7507C154.739 47.7507 155.405 47.5327 155.79 47.0841C156.175 46.6354 156.431 46.0329 156.533 45.2894C156.636 44.533 156.687 43.7383 156.687 42.905V39.4823H163.622V42.3922C163.622 44.4433 163.328 46.2636 162.751 47.8404C162.174 49.4172 161.174 50.6606 159.764 51.5708C158.354 52.4809 156.354 52.9424 153.777 52.9424L153.752 52.9168Z" fill="black"/>
<path d="M80.9902 96.4507V98.8991C78.7469 101.001 76.8368 102.694 75.2729 103.988C73.6961 105.27 72.1322 106.437 70.581 107.462C69.0171 108.488 67.7352 109.219 66.6968 109.654C65.6713 110.09 64.7868 110.308 64.0561 110.308C62.3127 110.308 60.8769 109.654 59.7745 108.36C58.6592 107.065 58.108 105.386 58.108 103.322C58.108 100.963 58.5823 98.6171 59.5437 96.3097C60.5052 93.9894 61.864 91.605 63.6331 89.1309C65.4021 86.6568 67.6198 83.8879 70.299 80.8241C72.286 78.5551 73.2731 77.286 73.2731 76.9912C73.2731 76.8245 73.209 76.6835 73.0936 76.5681C72.9782 76.4528 72.85 76.3887 72.709 76.3887C72.2604 76.3887 70.8759 77.3757 68.5684 79.3627C66.2482 81.3497 63.2869 84.2596 59.6591 88.1182C56.0313 91.964 52.1214 96.5532 47.9167 101.86C47.6732 102.142 46.9297 103.104 45.6606 104.745C44.3915 106.386 43.5069 107.45 42.9814 107.949C42.4558 108.449 42.0071 108.693 41.6353 108.693C40.9687 108.693 40.4047 108.026 39.9176 106.693C39.4304 105.36 39.1869 103.937 39.1869 102.424C39.1869 101.501 39.4817 100.514 40.0842 99.4504C40.6867 98.3864 41.9943 96.4763 44.0197 93.733C46.0323 90.9769 47.7116 88.6566 49.032 86.7722C50.3524 84.8878 51.801 82.5931 53.3905 79.9011C54.5058 78.0295 55.3262 76.5425 55.8518 75.44C56.3774 74.3376 56.6466 73.3505 56.6466 72.5044C56.6466 71.7737 56.4287 71.402 56.0056 71.402C55.1083 71.402 53.4162 72.607 50.9421 75.0042C48.468 77.4014 45.3914 80.9651 41.7507 85.6826C38.0973 90.4128 34.29 95.8738 30.3288 102.091C29.0341 104.219 28.1111 105.642 27.5599 106.373C27.0215 107.103 26.419 107.475 25.7524 107.475C24.9191 107.475 24.15 106.591 23.4321 104.834C22.7142 103.078 22.3553 101.655 22.3553 100.566C22.3553 100.207 22.4963 99.8221 22.7783 99.3991C25.8934 95.2457 28.4572 91.7076 30.4698 88.8104C32.4825 85.9005 34.2643 83.1444 35.8154 80.5421C37.3666 77.9398 38.5075 75.7862 39.2125 74.094C39.9176 72.4019 40.2765 71.0815 40.2765 70.1073C40.2765 69.133 39.815 68.5818 38.892 68.5818C38.1357 68.5818 36.8538 69.0689 35.0335 70.0303C33.2131 71.0046 30.9185 72.325 28.1368 74.0043C25.355 75.6836 23.1373 76.9655 21.458 77.85C19.7787 78.7346 18.5352 79.1832 17.7019 79.1832C16.92 79.1832 16.5354 78.7474 16.5354 77.8757C16.5354 77.3757 16.7021 76.2348 17.0353 74.453C17.3686 72.6711 17.7019 71.4148 18.0609 70.6841C18.5608 69.7355 19.8299 68.492 21.8682 66.9281C23.9064 65.3642 25.0345 64.595 25.2524 64.595C25.4447 64.595 25.5345 64.6719 25.5345 64.8386C25.5345 64.9283 25.4447 65.0693 25.2524 65.2616C24.2782 66.0436 23.5603 66.6845 23.086 67.1717C22.6117 67.6716 22.3168 68.21 22.2015 68.7997C26.5215 66.1974 30.3929 64.2233 33.8028 62.8644C37.2127 61.5056 39.5843 60.8262 40.9047 60.8262C41.5712 60.8262 42.1866 61.2748 42.7891 62.1594C43.3788 63.0439 43.8787 64.0694 44.2889 65.2488C44.6991 66.4282 44.9042 67.1717 44.9042 67.505C44.9042 68.71 44.5966 70.1329 43.9813 71.7737C43.3659 73.4146 42.5327 75.3247 41.4815 77.4911C40.4303 79.6704 39.1228 82.3752 37.5717 85.6441C38.8023 84.0673 39.9689 82.5931 41.0841 81.2471C42.1994 79.9011 43.3018 78.5936 44.3915 77.3116C45.4939 76.0425 46.6092 74.7478 47.7373 73.4531C49.2756 71.684 50.9933 69.9919 52.9162 68.3638C54.8391 66.7358 56.621 65.4283 58.2875 64.3899C59.9539 63.3516 61.082 62.8516 61.6717 62.8516C62.505 62.8516 63.2357 63.3003 63.8894 64.2104C64.5432 65.1206 64.8637 66.0949 64.8637 67.1332C64.8637 67.8126 64.415 69.133 63.5177 71.0687C62.6203 73.0044 61.3128 75.4913 59.5822 78.5038C57.8516 81.5291 55.5826 85.4262 52.7496 90.1949C55.4416 87.3362 58.2362 84.4006 61.1461 81.3753C64.0561 78.35 66.2097 76.1451 67.6326 74.7478C69.0556 73.3505 70.2349 72.2865 71.1707 71.5558C72.4655 70.5687 73.773 69.4919 75.0806 68.351C76.3881 67.2101 77.4265 66.3 78.1828 65.6462C78.9391 64.9796 79.6057 64.4796 80.1954 64.1207C80.7851 63.7618 81.3235 63.5951 81.8235 63.5951C82.4388 63.5951 83.2079 64.3002 84.1437 65.7231C85.0795 67.146 85.541 68.0562 85.541 68.4536C85.541 68.9535 85.259 69.5432 84.7078 70.2226C84.1565 70.902 83.0028 72.184 81.2466 74.0556C78.029 77.5039 75.2472 80.9779 72.8885 84.4904C70.5298 88.0028 68.7351 91.1948 67.5173 94.0919C66.2994 96.9891 65.6969 99.2709 65.6969 100.95C65.6969 101.989 65.8892 102.745 66.2866 103.219C66.684 103.694 67.2865 103.924 68.1069 103.924C68.8633 103.924 69.5683 103.783 70.2221 103.501C70.8759 103.219 71.5938 102.822 72.3885 102.296C73.1833 101.771 73.9268 101.283 74.6319 100.809C75.619 100.22 76.5932 99.5914 77.5547 98.9119C78.5161 98.2325 79.2596 97.707 79.7852 97.3224C80.3108 96.9378 80.7082 96.6558 80.9774 96.4891L80.9902 96.4507Z" fill="black"/>
<path d="M84.2334 97.8608V98.7453C84.2334 100.143 84.5795 101.219 85.2589 102.001C85.9383 102.783 86.8357 103.168 87.9509 103.168C89.0662 103.168 90.3097 102.899 91.5531 102.347C92.7966 101.809 94.0272 101.078 95.2579 100.181C96.4885 99.2837 97.9884 98.0787 99.7574 96.566V98.7325C97.091 101.95 94.5785 104.411 92.2454 106.116C89.9123 107.834 87.5279 108.68 85.1179 108.68C83.0156 108.68 81.3491 107.86 80.1184 106.232C78.8878 104.604 78.2725 102.373 78.2725 99.5401C78.2725 97.0532 78.8493 94.8098 80.0159 92.7844C81.1696 90.759 83.0668 88.631 85.6819 86.3876C87.4766 84.8493 89.2585 83.6956 91.0275 82.9136C92.7966 82.1316 94.3862 81.7471 95.7706 81.7471C96.8859 81.7471 97.7576 82.0034 98.4114 82.5034C99.0652 83.0162 99.3856 83.7725 99.3856 84.7852C99.3856 86.2722 98.8344 87.7593 97.7192 89.2335C96.6039 90.7077 94.9118 92.1691 92.6299 93.6304C90.3481 95.079 87.5407 96.4891 84.2206 97.8351L84.2334 97.8608ZM84.5923 95.5533C86.7203 94.7329 88.5406 93.6945 90.0533 92.4767C91.5659 91.2461 92.6812 90.0795 93.3991 88.9514C94.117 87.8234 94.4759 87.0029 94.4759 86.4902C94.4759 85.9774 94.2323 85.6697 93.7324 85.6697C93.3094 85.6697 92.6171 85.9389 91.6557 86.4902C90.6942 87.0414 89.7328 87.7464 88.7457 88.6181C87.7715 89.4899 86.8869 90.5154 86.105 91.7076C85.323 92.8997 84.8231 94.1817 84.5795 95.5661L84.5923 95.5533Z" fill="black"/>
<path d="M101.719 90.2462C105.308 86.9902 108.795 84.5673 112.166 82.9778C115.538 81.3882 118.153 80.6062 119.999 80.6062C120.499 80.6062 120.96 80.8113 121.383 81.2215C121.806 81.6317 122.14 82.1189 122.396 82.6573C122.64 83.1957 122.768 83.6059 122.768 83.8623C122.768 84.2853 122.601 84.6058 122.268 84.7981C121.934 84.9904 121.358 85.2467 120.537 85.5288C120.704 85.9133 120.909 86.3877 121.178 86.9773C121.435 87.567 121.64 88.0413 121.781 88.4131C121.922 88.7848 121.999 89.1053 121.999 89.3873C121.999 89.9514 121.422 91.0154 120.281 92.5537C119.14 94.092 118.332 95.2457 117.871 95.9764C117.409 96.7071 117.179 97.6044 117.179 98.6684C117.179 100.412 117.986 101.296 119.589 101.296C121.191 101.296 123.832 99.7452 127.344 96.6558V98.8223C121.37 105.463 117.089 108.783 114.512 108.783C113.589 108.783 112.935 108.488 112.551 107.873C112.153 107.27 111.961 106.373 111.961 105.193C111.961 103.322 112.628 100.617 113.987 97.0788C110.538 100.912 107.974 103.629 106.295 105.245C104.616 106.86 103.231 107.667 102.155 107.667C101.629 107.667 100.988 107.219 100.206 106.321C99.424 105.424 98.7318 104.258 98.1293 102.835C97.5268 101.412 97.2319 99.9247 97.2319 98.3864C97.2319 97.2711 97.3345 96.3481 97.5524 95.6046C97.7703 94.8611 98.1806 94.1048 98.7959 93.3228C99.4112 92.5409 100.385 91.5153 101.731 90.2334L101.719 90.2462ZM118.691 86.3492C112.551 89.1566 108.18 91.541 105.564 93.5023C102.949 95.4636 101.655 97.4891 101.655 99.5658C101.655 100.322 101.783 100.937 102.039 101.425C102.296 101.912 102.654 102.155 103.103 102.155C103.36 102.155 103.821 101.989 104.488 101.655C106.975 100.194 109.231 98.2838 111.295 95.9379C113.346 93.592 115.82 90.3872 118.704 86.3492H118.691Z" fill="black"/>
<path d="M137.279 78.1961H138.805C140.061 75.9527 141.189 74.3631 142.202 73.4273C143.215 72.4915 144.368 72.03 145.676 72.03C146.983 72.03 147.624 72.3249 147.624 72.9146C147.624 73.1966 147.112 73.9657 146.099 75.222C145.086 76.4783 144.317 77.5295 143.791 78.3755C144.599 78.4653 145.304 78.555 145.932 78.6191C146.56 78.6832 147.047 78.7473 147.406 78.7986C146.06 81.2983 144.368 83.8621 142.343 86.4901C141.676 86.4388 141.125 86.4003 140.676 86.3619C140.228 86.3234 139.766 86.285 139.317 86.2593C138.856 86.2209 138.292 86.1824 137.638 86.1311C136.356 88.1822 135.292 90.0282 134.433 91.6434C133.575 93.2586 132.908 94.7456 132.446 96.0916C131.985 97.4376 131.754 98.7196 131.754 99.9246C131.754 101.553 132.408 102.373 133.703 102.373C134.6 102.373 135.779 101.899 137.228 100.937C138.677 99.9758 140.625 98.5144 143.061 96.5275V98.899C136.677 105.821 131.972 109.283 128.921 109.283C127.857 109.283 126.998 108.872 126.357 108.039C125.704 107.219 125.383 106.155 125.383 104.847C125.383 103.975 125.563 102.937 125.934 101.732C126.306 100.527 126.96 98.7067 127.896 96.2711C127.562 96.5531 127.255 96.8351 126.96 97.1043C126.665 97.3735 126.396 97.6299 126.139 97.8478C125.896 98.0786 125.627 98.3093 125.345 98.5529C125.063 98.7965 124.781 99.0528 124.499 99.3092V96.8608C126.973 94.7841 129.985 91.1306 133.498 85.9132C133.139 85.8876 132.818 85.8747 132.511 85.8619C132.203 85.8619 131.844 85.8491 131.408 85.8491C130.011 85.8491 128.972 85.9388 128.293 86.1311C128.011 86.208 127.742 86.285 127.498 86.3619C127.255 86.4516 127.075 86.4901 126.985 86.4901C126.896 86.4901 126.844 86.4131 126.844 86.2721C126.844 85.4902 127.332 84.3236 128.293 82.7597C129.075 81.4393 129.806 80.4522 130.511 79.8241C131.203 79.1831 132.062 78.7601 133.062 78.5294C134.062 78.2986 135.472 78.1961 137.292 78.1961H137.279Z" fill="black"/>
<path d="M140.663 97.5787V96.7326C146.752 90.3102 150.944 85.8107 153.239 83.234C153.752 80.3241 155.008 78.8755 156.995 78.8755C157.495 78.8755 158.02 79.0165 158.585 79.2985L158.802 79.9779C158.713 80.26 158.661 80.6574 158.661 81.1829C158.661 81.6316 158.828 82.4649 159.174 83.6827C159.52 84.9005 159.777 85.926 159.969 86.7465C160.161 87.5797 160.251 88.5027 160.251 89.541C160.251 91.105 159.892 92.592 159.187 94.0278C158.482 95.4635 157.456 96.8223 156.11 98.1427C154.764 99.4503 153.034 100.796 150.906 102.168C151.752 102.309 152.431 102.386 152.931 102.386C153.906 102.386 154.944 102.142 156.072 101.655C157.2 101.168 158.341 100.527 159.508 99.7066C160.674 98.8862 162.046 97.8351 163.597 96.5403V98.9119C160.572 101.86 157.867 104.104 155.482 105.629C153.098 107.155 151.047 107.911 149.316 107.911C147.099 107.911 145.035 106.962 143.15 105.078C142.035 103.95 141.343 102.86 141.074 101.822C140.804 100.783 140.663 99.3733 140.663 97.6043V97.5787ZM153.88 92.1562L153.239 86.9772C151.778 88.6309 148.65 91.81 143.842 96.5147C145.265 96.8223 146.227 97.2325 146.752 97.7581C147.278 98.2837 148.009 99.2836 148.945 100.771C150.547 100.104 151.79 99.2067 152.649 98.0658C153.508 96.9249 153.944 95.361 153.944 93.374C153.944 93.1432 153.944 92.9253 153.931 92.733C153.918 92.5407 153.906 92.3613 153.88 92.169V92.1562Z" fill="black"/>
</svg>
