<svg width="288" height="289" viewBox="0 0 288 289" fill="none" xmlns="http://www.w3.org/2000/svg">
<rect width="288" height="289" fill="#EEF866"/>
<path d="M46.6027 100V65.44H61.1947V70.2187H53.6427V79.5627H60.0427V84.4693H53.6427V100H46.6027ZM74.3703 100.469C71.8388 100.469 69.8334 100.014 68.3543 99.104C66.8752 98.1938 65.8086 96.8996 65.1543 95.2213C64.5286 93.5147 64.2157 91.4809 64.2157 89.12V76.2347C64.2157 73.8738 64.5286 71.8542 65.1543 70.176C65.8086 68.4978 66.8752 67.2178 68.3543 66.336C69.8334 65.4542 71.8388 65.0133 74.3703 65.0133C76.9303 65.0133 78.9499 65.4684 80.429 66.3787C81.9366 67.2604 83.0032 68.5404 83.629 70.2187C84.2832 71.8684 84.6103 73.8738 84.6103 76.2347V89.12C84.6103 91.4809 84.2832 93.5147 83.629 95.2213C83.0032 96.8996 81.9366 98.1938 80.429 99.104C78.9499 100.014 76.9303 100.469 74.3703 100.469ZM74.3703 95.392C75.2806 95.392 75.949 95.1929 76.3757 94.7947C76.8023 94.368 77.0868 93.8133 77.229 93.1307C77.3712 92.4196 77.4423 91.6658 77.4423 90.8693V74.528C77.4423 73.7316 77.3712 72.992 77.229 72.3093C77.0868 71.6267 76.8023 71.0862 76.3757 70.688C75.949 70.2613 75.2806 70.048 74.3703 70.048C73.517 70.048 72.877 70.2613 72.4503 70.688C72.0237 71.0862 71.7392 71.6267 71.597 72.3093C71.4548 72.992 71.3837 73.7316 71.3837 74.528V90.8693C71.3837 91.6658 71.4406 92.4196 71.5543 93.1307C71.6966 93.8133 71.981 94.368 72.4077 94.7947C72.8343 95.1929 73.4886 95.392 74.3703 95.392ZM89.311 100V65.44H96.351V95.2213H104.458V100H89.311ZM107.769 100V65.44H114.809V95.2213H122.916V100H107.769ZM135.37 100.469C132.839 100.469 130.833 100.014 129.354 99.104C127.875 98.1938 126.809 96.8996 126.154 95.2213C125.529 93.5147 125.216 91.4809 125.216 89.12V76.2347C125.216 73.8738 125.529 71.8542 126.154 70.176C126.809 68.4978 127.875 67.2178 129.354 66.336C130.833 65.4542 132.839 65.0133 135.37 65.0133C137.93 65.0133 139.95 65.4684 141.429 66.3787C142.937 67.2604 144.003 68.5404 144.629 70.2187C145.283 71.8684 145.61 73.8738 145.61 76.2347V89.12C145.61 91.4809 145.283 93.5147 144.629 95.2213C144.003 96.8996 142.937 98.1938 141.429 99.104C139.95 100.014 137.93 100.469 135.37 100.469ZM135.37 95.392C136.281 95.392 136.949 95.1929 137.376 94.7947C137.802 94.368 138.087 93.8133 138.229 93.1307C138.371 92.4196 138.442 91.6658 138.442 90.8693V74.528C138.442 73.7316 138.371 72.992 138.229 72.3093C138.087 71.6267 137.802 71.0862 137.376 70.688C136.949 70.2613 136.281 70.048 135.37 70.048C134.517 70.048 133.877 70.2613 133.45 70.688C133.024 71.0862 132.739 71.6267 132.597 72.3093C132.455 72.992 132.384 73.7316 132.384 74.528V90.8693C132.384 91.6658 132.441 92.4196 132.554 93.1307C132.697 93.8133 132.981 94.368 133.408 94.7947C133.834 95.1929 134.489 95.392 135.37 95.392ZM153.426 100L148.946 65.44H154.919L157.308 86.56L160.338 65.4827H165.074L168.231 86.5173L170.62 65.44H176.508L172.071 100H166.098L162.727 78.112L159.527 100H153.426ZM200.747 100.469C198.13 100.469 196.097 100.028 194.646 99.1467C193.195 98.2364 192.171 96.9422 191.574 95.264C191.005 93.5573 190.721 91.4951 190.721 89.0773V65.44H197.675V90.0587C197.675 90.912 197.732 91.7511 197.846 92.576C197.988 93.4009 198.273 94.0693 198.699 94.5813C199.154 95.0933 199.837 95.3493 200.747 95.3493C201.686 95.3493 202.369 95.0933 202.795 94.5813C203.25 94.0693 203.535 93.4009 203.649 92.576C203.762 91.7511 203.819 90.912 203.819 90.0587V65.44H210.774V89.0773C210.774 91.4951 210.475 93.5573 209.878 95.264C209.309 96.9422 208.299 98.2364 206.849 99.1467C205.398 100.028 203.364 100.469 200.747 100.469ZM224.646 100.469C222.513 100.469 220.735 100.085 219.313 99.3173C217.89 98.5209 216.81 97.3404 216.07 95.776C215.359 94.1831 214.946 92.1636 214.833 89.7173L220.891 88.6933C220.948 90.1156 221.09 91.3102 221.318 92.2773C221.574 93.216 221.944 93.9271 222.427 94.4107C222.939 94.8658 223.565 95.0933 224.305 95.0933C225.215 95.0933 225.826 94.8089 226.139 94.24C226.481 93.6711 226.651 93.0169 226.651 92.2773C226.651 90.8267 226.296 89.6178 225.585 88.6507C224.902 87.6551 223.992 86.6596 222.854 85.664L219.27 82.5493C217.99 81.4684 216.938 80.2453 216.113 78.88C215.316 77.5147 214.918 75.8364 214.918 73.8453C214.918 71.0009 215.743 68.8249 217.393 67.3173C219.071 65.7813 221.361 65.0133 224.262 65.0133C225.997 65.0133 227.419 65.2978 228.529 65.8667C229.638 66.4356 230.491 67.2036 231.089 68.1707C231.714 69.1093 232.141 70.1476 232.369 71.2853C232.625 72.3947 232.781 73.504 232.838 74.6133L226.822 75.5093C226.765 74.4569 226.666 73.5324 226.523 72.736C226.41 71.9396 226.154 71.3138 225.755 70.8587C225.386 70.4036 224.817 70.176 224.049 70.176C223.224 70.176 222.612 70.4889 222.214 71.1147C221.816 71.712 221.617 72.3804 221.617 73.12C221.617 74.3431 221.887 75.3529 222.427 76.1493C222.996 76.9173 223.764 77.728 224.731 78.5813L228.23 81.6533C229.681 82.9049 230.918 84.3413 231.942 85.9627C232.994 87.5556 233.521 89.5324 233.521 91.8933C233.521 93.5147 233.151 94.9796 232.411 96.288C231.672 97.5964 230.634 98.6204 229.297 99.36C227.988 100.1 226.438 100.469 224.646 100.469ZM56.2453 164.469C53.7138 164.469 51.7084 164.014 50.2293 163.104C48.7502 162.194 47.6836 160.9 47.0293 159.221C46.4036 157.515 46.0907 155.481 46.0907 153.12V140.235C46.0907 137.874 46.4036 135.854 47.0293 134.176C47.6836 132.498 48.7502 131.218 50.2293 130.336C51.7084 129.454 53.7138 129.013 56.2453 129.013C58.8053 129.013 60.8249 129.468 62.304 130.379C63.8116 131.26 64.8782 132.54 65.504 134.219C66.1582 135.868 66.4853 137.874 66.4853 140.235V153.12C66.4853 155.481 66.1582 157.515 65.504 159.221C64.8782 160.9 63.8116 162.194 62.304 163.104C60.8249 164.014 58.8053 164.469 56.2453 164.469ZM56.2453 159.392C57.1556 159.392 57.824 159.193 58.2507 158.795C58.6773 158.368 58.9618 157.813 59.104 157.131C59.2462 156.42 59.3173 155.666 59.3173 154.869V138.528C59.3173 137.732 59.2462 136.992 59.104 136.309C58.9618 135.627 58.6773 135.086 58.2507 134.688C57.824 134.261 57.1556 134.048 56.2453 134.048C55.392 134.048 54.752 134.261 54.3253 134.688C53.8987 135.086 53.6142 135.627 53.472 136.309C53.3298 136.992 53.2587 137.732 53.2587 138.528V154.869C53.2587 155.666 53.3156 156.42 53.4293 157.131C53.5716 157.813 53.856 158.368 54.2827 158.795C54.7093 159.193 55.3636 159.392 56.2453 159.392ZM71.186 164V129.44H76.0927L83.7727 147.445V129.44H89.5753V164H84.882L77.202 144.885V164H71.186ZM46.688 228V193.44H53.6853V228H46.688ZM58.9777 228V193.44H63.8843L71.5643 211.445V193.44H77.367V228H72.6737L64.9937 208.885V228H58.9777ZM91.5627 228.469C89.4293 228.469 87.6516 228.085 86.2293 227.317C84.8071 226.521 83.7262 225.34 82.9867 223.776C82.2756 222.183 81.8631 220.164 81.7493 217.717L87.808 216.693C87.8649 218.116 88.0071 219.31 88.2347 220.277C88.4907 221.216 88.8604 221.927 89.344 222.411C89.856 222.866 90.4818 223.093 91.2213 223.093C92.1316 223.093 92.7431 222.809 93.056 222.24C93.3973 221.671 93.568 221.017 93.568 220.277C93.568 218.827 93.2124 217.618 92.5013 216.651C91.8187 215.655 90.9084 214.66 89.7707 213.664L86.1867 210.549C84.9067 209.468 83.8542 208.245 83.0293 206.88C82.2329 205.515 81.8347 203.836 81.8347 201.845C81.8347 199.001 82.6596 196.825 84.3093 195.317C85.9876 193.781 88.2773 193.013 91.1787 193.013C92.9138 193.013 94.336 193.298 95.4453 193.867C96.5547 194.436 97.408 195.204 98.0053 196.171C98.6311 197.109 99.0578 198.148 99.2853 199.285C99.5413 200.395 99.6978 201.504 99.7547 202.613L93.7387 203.509C93.6818 202.457 93.5822 201.532 93.44 200.736C93.3262 199.94 93.0702 199.314 92.672 198.859C92.3022 198.404 91.7333 198.176 90.9653 198.176C90.1404 198.176 89.5289 198.489 89.1307 199.115C88.7324 199.712 88.5333 200.38 88.5333 201.12C88.5333 202.343 88.8036 203.353 89.344 204.149C89.9129 204.917 90.6809 205.728 91.648 206.581L95.1467 209.653C96.5973 210.905 97.8347 212.341 98.8587 213.963C99.9111 215.556 100.437 217.532 100.437 219.893C100.437 221.515 100.068 222.98 99.328 224.288C98.5884 225.596 97.5502 226.62 96.2133 227.36C94.9049 228.1 93.3547 228.469 91.5627 228.469ZM107.387 228V198.688H102.054V193.44H119.718V198.688H114.47V228H107.387ZM119.938 228L126.636 193.44H134.444L141.1 228H134.572L133.335 220.405H127.874L126.551 228H119.938ZM128.514 216.096H132.652L130.562 202.144L128.514 216.096ZM152.976 228.512C150.644 228.512 148.795 228.028 147.43 227.061C146.064 226.066 145.083 224.672 144.486 222.88C143.917 221.06 143.632 218.955 143.632 216.565V205.003C143.632 202.528 143.931 200.395 144.528 198.603C145.126 196.811 146.164 195.431 147.643 194.464C149.151 193.497 151.184 193.013 153.744 193.013C156.219 193.013 158.167 193.426 159.59 194.251C161.04 195.076 162.079 196.242 162.704 197.749C163.33 199.257 163.643 201.049 163.643 203.125V205.131H156.774V202.699C156.774 201.788 156.717 200.992 156.603 200.309C156.489 199.598 156.219 199.044 155.792 198.645C155.394 198.247 154.74 198.048 153.83 198.048C152.891 198.048 152.208 198.29 151.782 198.773C151.355 199.257 151.085 199.883 150.971 200.651C150.857 201.39 150.8 202.187 150.8 203.04V218.357C150.8 219.324 150.886 220.192 151.056 220.96C151.227 221.728 151.54 222.325 151.995 222.752C152.479 223.179 153.161 223.392 154.043 223.392C154.925 223.392 155.607 223.164 156.091 222.709C156.575 222.254 156.902 221.643 157.072 220.875C157.271 220.078 157.371 219.182 157.371 218.187V214.517H154V210.251H163.728V228H159.12L158.694 224.885C158.239 225.938 157.556 226.805 156.646 227.488C155.735 228.171 154.512 228.512 152.976 228.512ZM168.561 228V193.44H177.521C179.853 193.44 181.845 193.71 183.494 194.251C185.173 194.763 186.453 195.687 187.334 197.024C188.245 198.361 188.7 200.21 188.7 202.571C188.7 203.993 188.572 205.259 188.316 206.368C188.088 207.449 187.661 208.402 187.036 209.227C186.438 210.023 185.585 210.663 184.476 211.147L189.254 228H182.044L178.076 212.341H175.601V228H168.561ZM175.601 208.16H177.649C178.787 208.16 179.683 207.975 180.337 207.605C180.991 207.236 181.446 206.681 181.702 205.941C181.987 205.173 182.129 204.235 182.129 203.125C182.129 201.532 181.83 200.324 181.233 199.499C180.664 198.645 179.583 198.219 177.99 198.219H175.601V208.16ZM191.729 228L198.428 193.44H206.236L212.892 228H206.364L205.127 220.405H199.665L198.343 228H191.729ZM200.305 216.096H204.444L202.353 202.144L200.305 216.096ZM216.266 228L216.864 193.44H224.33L228.597 215.243L233.162 193.44H240.373L240.97 228H235.85L235.296 204.576L230.901 228H226.506L221.898 204.405L221.429 228H216.266Z" fill="#EE4A1E"/>
</svg>
