<svg width="329" height="39" viewBox="0 0 329 39" fill="none" xmlns="http://www.w3.org/2000/svg">
<path d="M27.7656 2.71094L27.7422 4.89062C27.7422 7.03125 27.7109 8.9375 27.6484 10.6094C25.8203 10.7656 23.3203 10.8438 20.1484 10.8438L14.7344 10.8672V11.5469L14.6875 13.6094C14.6875 14.1562 14.7109 14.6875 14.7578 15.2031C18.6641 14.875 21.5547 14.7109 23.4297 14.7109C25.3203 14.7109 26.4766 14.8516 26.8984 15.1328V22.9844C26.8984 23.5 26.7969 23.8438 26.5938 24.0156C26.3906 24.1875 26.0781 24.2734 25.6562 24.2734H25.3516L24.0859 24.2266C21.2891 24.3828 18.1875 24.5 14.7812 24.5781L14.9453 33.9062L14.9219 34.7031V36.9062C14.9219 37.375 14.7812 37.625 14.5 37.6562L1.09375 37.7734C1.0625 37.6797 0.945312 37.4688 0.742188 37.1406C0.679688 36.1094 0.648438 35.2344 0.648438 34.5156L0.789062 1.91406C0.789062 1.71094 1.85156 1.60938 3.97656 1.60938L4.5625 1.63281H6.15625L17.4766 1.51562L25.5156 1.60938H26.3125L26.6641 1.58594C27.1016 1.58594 27.3906 1.6875 27.5312 1.89062C27.6875 2.07812 27.7656 2.35156 27.7656 2.71094ZM56.9575 28C56.8481 28.4375 56.7934 28.9062 56.7934 29.4062V29.9453C56.7934 30.7734 56.8481 31.3672 56.9575 31.7266C56.9575 34.0859 56.9497 35.9062 56.9341 37.1875C56.8403 37.5938 49.1294 37.7969 33.8013 37.7969C33.0981 37.7969 31.9341 37.7812 30.3091 37.75C30.0591 37.2812 29.9341 36.5078 29.9341 35.4297L29.9809 33.9062V28.5859L30.0044 24.1328V19.7266L30.0278 12.625C30.0278 11.3125 30.0122 10.0781 29.9809 8.92188V8.66406L29.9106 5.28906C29.9106 3.30469 30.0747 2.01562 30.4028 1.42188C30.7153 1.4375 31.145 1.44531 31.6919 1.44531H32.8169L36.7544 1.39844C41.2388 1.39844 43.7075 1.67969 44.1606 2.24219L43.9731 10.4219L43.9028 17.2891L43.8794 17.5703L43.7856 27.3203L44.7231 27.8594C47.5513 27.6875 50.2856 27.6016 52.9263 27.6016C55.5825 27.6016 56.9263 27.7344 56.9575 28ZM70.6806 19.1875C70.6806 19.2031 70.6728 19.2422 70.6572 19.3047V19.375C70.5947 20.0312 70.5634 20.7656 70.5634 21.5781C70.5634 22.3906 70.6259 23.25 70.7509 24.1562C70.8916 25.0625 71.1103 25.9688 71.4072 26.875C71.7197 27.7812 72.1963 28.5156 72.8369 29.0781C73.5244 29.6719 74.29 29.9688 75.1338 29.9688C75.9931 29.9688 76.7119 29.8516 77.29 29.6172C77.8838 29.3672 78.3759 29.0547 78.7666 28.6797C79.1728 28.3047 79.5244 27.7969 79.8213 27.1562C80.5713 25.4531 80.9463 22.8125 80.9463 19.2344C80.9463 15.5938 80.5244 13.0469 79.6806 11.5938C78.8525 10.125 77.5947 9.39062 75.9072 9.39062C75.0634 9.39062 74.3213 9.59375 73.6806 10C73.0556 10.4062 72.5791 10.8281 72.2509 11.2656C71.9384 11.7031 71.6103 12.6328 71.2666 14.0547C70.9384 15.4766 70.7744 16.7891 70.7744 17.9922L70.6806 19.1875ZM57.2041 19.375L57.2509 18.8594C57.4384 16.9062 57.6884 15.1797 58.0009 13.6797C58.3134 12.1641 58.8213 10.75 59.5244 9.4375C61.1963 6.54688 63.5244 4.35937 66.5088 2.875C69.5088 1.375 72.7353 0.625 76.1884 0.625C79.6572 0.625 82.8056 1.32031 85.6338 2.71094C87.3213 3.53906 88.6416 4.58594 89.5947 5.85156C91.4228 8.13281 92.6259 10.2344 93.2041 12.1562C93.7822 14.0781 94.0713 16.2969 94.0713 18.8125C94.0713 24.4062 92.915 28.6719 90.6025 31.6094L89.5244 33.0391C88.0713 34.7266 86.0166 36.0312 83.3603 36.9531C80.7041 37.8594 78.0713 38.3281 75.4619 38.3594C70.9931 38.3594 67.3291 37.4219 64.4697 35.5469C59.6259 32.4062 57.2041 27.0156 57.2041 19.375ZM104.044 1.1875L107.021 1.14062C109.412 1.14062 110.607 1.22656 110.607 1.39844C110.576 1.46094 110.56 1.54687 110.56 1.65625C110.341 2.1875 110.068 2.94531 109.74 3.92969C109.412 4.91406 109.201 5.53906 109.107 5.80469L108.427 7.70312C107.287 11.125 106.326 13.8125 105.544 15.7656C104.888 16.2812 103.318 16.5391 100.833 16.5391H98.7006L98.3959 16.5625H96.8022C96.0834 16.5625 95.6616 16.5 95.5366 16.375L95.3022 16.0469C95.3334 15.8906 95.3881 15.6719 95.4662 15.3906C95.5444 15.0938 95.5991 14.8672 95.6303 14.7109L96.5209 11.4297C96.4584 11.4141 96.3178 11.3594 96.0991 11.2656C98.0522 6.1875 99.1537 2.83594 99.4037 1.21094C99.5912 1.19531 99.8412 1.1875 100.154 1.1875H104.044ZM105.802 15.5312L105.404 16.1875L105.544 15.7656C105.669 15.6719 105.755 15.5938 105.802 15.5312ZM105.849 15.4609L105.802 15.5312L105.849 15.4609ZM112.471 27.3203L124.869 27.1094C125.182 27.1094 125.439 27.375 125.643 27.9062C125.861 28.4375 126.072 28.8594 126.275 29.1719C126.76 29.9219 127.557 30.2969 128.666 30.2969C129.791 30.2969 130.697 30.0391 131.385 29.5234C132.072 28.9922 132.416 28.3125 132.416 27.4844C132.416 26.6562 132.205 26.0938 131.783 25.7969C131.361 25.4844 130.9 25.1875 130.4 24.9062C129.9 24.6094 129.158 24.3828 128.174 24.2266C127.205 24.0703 126.674 23.9766 126.58 23.9453H126.627L125.291 23.5938C124.432 23.4375 123.713 23.2656 123.135 23.0781C119.4 22.0781 116.697 20.8203 115.025 19.3047C113.369 17.7891 112.541 15.75 112.541 13.1875C112.541 11.3281 112.885 9.65625 113.572 8.17188C114.26 6.6875 115.158 5.47656 116.268 4.53906C119.471 1.83594 123.893 0.484375 129.533 0.484375C134.018 0.484375 137.541 1.29688 140.103 2.92188H140.08C141.721 4.10938 142.846 5.28125 143.455 6.4375C144.064 7.57813 144.447 8.99219 144.603 10.6797L143.994 11.2891C139.885 11.4453 136.244 11.5234 133.072 11.5234C132.119 11.5234 131.549 11.2422 131.361 10.6797C131.283 10.4453 131.197 10.2109 131.103 9.97656C130.885 9.41406 130.182 9.13281 128.994 9.13281H128.9C127.978 9.13281 127.189 9.35156 126.533 9.78906C125.877 10.2109 125.541 10.625 125.525 11.0312C125.525 11.4375 125.611 11.7734 125.783 12.0391C125.971 12.3047 126.166 12.5156 126.369 12.6719C126.572 12.8281 126.885 12.9922 127.307 13.1641C127.728 13.3203 128.041 13.4297 128.244 13.4922C128.463 13.5391 128.799 13.625 129.252 13.75L130.072 13.9609C130.4 14.0547 131.353 14.2891 132.932 14.6641C134.525 15.0391 135.853 15.3984 136.916 15.7422V15.7188C140.244 16.8438 142.51 18.25 143.713 19.9375C144.932 21.6094 145.541 23.5625 145.541 25.7969C145.541 31.75 141.986 35.6094 134.877 37.375C132.814 37.8906 130.611 38.2578 128.268 38.4766C125.393 38.4766 122.549 38.0547 119.736 37.2109C116.924 36.3672 115.041 34.9922 114.088 33.0859C113.447 32.1641 113.018 31.3203 112.799 30.5547C112.58 29.7734 112.4 28.6875 112.26 27.2969C112.307 27.3125 112.377 27.3203 112.471 27.3203ZM191.386 2.71094L191.362 4.89062C191.362 7.03125 191.331 8.9375 191.268 10.6094C189.44 10.7656 186.94 10.8438 183.768 10.8438L178.354 10.8672V11.5469L178.307 13.6094C178.307 14.1562 178.331 14.6875 178.378 15.2031C182.284 14.875 185.175 14.7109 187.05 14.7109C188.94 14.7109 190.097 14.8516 190.518 15.1328V22.9844C190.518 23.5 190.417 23.8438 190.214 24.0156C190.011 24.1875 189.698 24.2734 189.276 24.2734H188.972L187.706 24.2266C184.909 24.3828 181.807 24.5 178.401 24.5781L178.565 33.9062L178.542 34.7031V36.9062C178.542 37.375 178.401 37.625 178.12 37.6562L164.714 37.7734C164.682 37.6797 164.565 37.4688 164.362 37.1406C164.3 36.1094 164.268 35.2344 164.268 34.5156L164.409 1.91406C164.409 1.71094 165.472 1.60938 167.597 1.60938L168.182 1.63281H169.776L181.097 1.51562L189.136 1.60938H189.932L190.284 1.58594C190.722 1.58594 191.011 1.6875 191.151 1.89062C191.307 2.07812 191.386 2.35156 191.386 2.71094ZM227.913 37.2578C227.898 37.4609 227.468 37.5625 226.624 37.5625H224.468L223.015 37.5859H221.585L219.312 37.6094C217.046 37.6094 215.163 37.5547 213.663 37.4453C213.617 37.4297 213.562 37.3359 213.499 37.1641L213.382 36.6719C213.242 35.0625 212.874 33.5078 212.281 32.0078L202.249 32.1016C202.187 32.3672 201.984 33.1562 201.64 34.4688C201.296 35.7812 201.038 36.7734 200.867 37.4453C200.71 37.6016 199.968 37.6797 198.64 37.6797L198.054 37.6562H196.695L190.601 37.7969H189.898L189.242 37.8203H187.601C187.492 37.7109 187.374 37.5703 187.249 37.3984C188.812 31.9922 190.929 25.2891 193.601 17.2891L194.14 15.625H194.117L194.749 13.6797C194.952 13.0547 195.531 11.3203 196.484 8.47656C197.452 5.63281 198.054 3.79687 198.288 2.96875C198.538 2.14063 198.687 1.71094 198.734 1.67969H202.624L210.945 1.5625L213.195 1.67969L215.046 1.5625C215.984 1.5625 216.452 1.75 216.452 2.125C218.015 6.48438 220.101 12.7578 222.71 20.9453C225.32 29.1328 226.788 33.7344 227.117 34.75L227.445 35.9219C227.554 36.3438 227.71 36.7891 227.913 37.2578ZM204.71 24.4609L205.671 24.4844L211.273 24.4609C211.038 22.6016 210.859 21.2344 210.734 20.3594L209.843 16.3516C208.906 12.2109 208.421 10.1016 208.39 10.0234C208.359 9.94531 208.327 9.875 208.296 9.8125C208.281 9.73438 208.265 9.6875 208.249 9.67188C208.234 9.64063 208.21 9.59375 208.179 9.53125C208.163 9.46875 208.14 9.42969 208.109 9.41406C208.093 9.38281 208.07 9.34375 208.038 9.29688C207.929 9.10938 207.702 8.94531 207.359 8.80469C206.937 8.89844 205.679 13.6016 203.585 22.9141L203.327 24.4609H204.71ZM228.793 5.125L228.723 3.10938C228.723 2.25 228.808 1.71875 228.98 1.51562C229.402 1.5 230.199 1.49219 231.371 1.49219C232.558 1.49219 233.582 1.5 234.441 1.51562L237.746 1.5625C238.355 1.51562 239.238 1.49219 240.394 1.49219C241.551 1.49219 242.285 1.64844 242.598 1.96094C242.519 5.77344 242.48 10.3047 242.48 15.5547L243.301 15.6953C243.535 15.0859 243.957 14.1719 244.566 12.9531C245.191 11.7344 245.551 11.0234 245.644 10.8203L245.902 10.2578C245.965 10.1172 246.246 9.51562 246.746 8.45312C247.262 7.375 247.785 6.17188 248.316 4.84375C248.848 3.5 249.418 2.44531 250.027 1.67969C251.121 1.66406 252.449 1.65625 254.012 1.65625C255.59 1.65625 257.426 1.6875 259.519 1.75C261.613 1.79688 263.183 1.82031 264.23 1.82031C259.777 9.86719 256.613 15.4375 254.738 18.5312L255.277 19.3984C255.918 20.1953 257.316 22.4688 259.473 26.2188C261.629 29.9688 263.191 32.6328 264.16 34.2109L264.723 35.125C265.41 36.2656 265.754 36.9141 265.754 37.0703C265.754 37.2266 265.707 37.3672 265.613 37.4922H265.473C264.598 37.4609 263.887 37.4453 263.34 37.4453C262.808 37.4453 262.105 37.4609 261.23 37.4922H250.707C248.301 32.9922 245.801 28.1094 243.207 22.8438C243.082 24.0938 242.894 27.0469 242.644 31.7031V32.0078L242.691 37.3281C242.504 37.6094 241.683 37.75 240.23 37.75L239.738 37.7266H238.473L231.84 37.7734H229.683C229.246 37.7734 228.933 37.6094 228.746 37.2812L228.676 37.2109V33.6484L228.723 29.9688V16.7266L228.793 5.125ZM266.867 7.98438L266.75 1.82031C266.766 1.82031 266.821 1.84375 266.914 1.89062C278.789 1.6875 287.735 1.57813 293.75 1.5625C293.813 1.59375 293.86 1.64062 293.891 1.70312V8.3125C293.891 8.95312 293.875 9.47656 293.844 9.88281C293.766 10.1328 293.305 10.2578 292.461 10.2578H292.297C288.516 10.2578 284.578 10.1953 280.485 10.0703C280.485 10.2109 280.461 10.4609 280.414 10.8203C280.383 11.1797 280.36 11.4375 280.344 11.5938L280.227 12.4844C280.149 13.0781 280.094 14.1094 280.063 15.5781L287.328 15.4141C288.578 15.3828 289.485 15.3672 290.047 15.3672H290.422C291.375 15.3672 292 15.3984 292.297 15.4609C292.594 15.5078 292.742 15.6641 292.742 15.9297L292.719 16.1172V16.6797L292.836 22.7031L292.813 22.7266V22.7031C288.063 22.9375 284.266 23.0547 281.422 23.0547H280.321V28.7266L293.047 28.3281C293.75 28.3281 294.196 28.4297 294.383 28.6328C294.367 29.0391 294.36 29.6172 294.36 30.3672L294.524 36.7422C294.524 37.1328 294.352 37.3594 294.008 37.4219L286.227 37.3516C284.696 37.3516 281.649 37.4062 277.086 37.5156L273.242 37.6094C270.524 37.7031 268.508 37.75 267.196 37.75L267.125 37.7031H267.149C266.992 37.5469 266.844 37.3984 266.703 37.2578V36.4375L266.844 11.3828L266.867 7.98438ZM295.778 27.3203L308.177 27.1094C308.489 27.1094 308.747 27.375 308.95 27.9062C309.169 28.4375 309.38 28.8594 309.583 29.1719C310.067 29.9219 310.864 30.2969 311.973 30.2969C313.098 30.2969 314.005 30.0391 314.692 29.5234C315.38 28.9922 315.723 28.3125 315.723 27.4844C315.723 26.6562 315.513 26.0938 315.091 25.7969C314.669 25.4844 314.208 25.1875 313.708 24.9062C313.208 24.6094 312.466 24.3828 311.481 24.2266C310.513 24.0703 309.981 23.9766 309.888 23.9453H309.934L308.598 23.5938C307.739 23.4375 307.02 23.2656 306.442 23.0781C302.708 22.0781 300.005 20.8203 298.333 19.3047C296.677 17.7891 295.848 15.75 295.848 13.1875C295.848 11.3281 296.192 9.65625 296.88 8.17188C297.567 6.6875 298.466 5.47656 299.575 4.53906C302.778 1.83594 307.2 0.484375 312.841 0.484375C317.325 0.484375 320.848 1.29688 323.411 2.92188H323.388C325.028 4.10938 326.153 5.28125 326.763 6.4375C327.372 7.57813 327.755 8.99219 327.911 10.6797L327.302 11.2891C323.192 11.4453 319.552 11.5234 316.38 11.5234C315.427 11.5234 314.856 11.2422 314.669 10.6797C314.591 10.4453 314.505 10.2109 314.411 9.97656C314.192 9.41406 313.489 9.13281 312.302 9.13281H312.208C311.286 9.13281 310.497 9.35156 309.841 9.78906C309.184 10.2109 308.848 10.625 308.833 11.0312C308.833 11.4375 308.919 11.7734 309.091 12.0391C309.278 12.3047 309.473 12.5156 309.677 12.6719C309.88 12.8281 310.192 12.9922 310.614 13.1641C311.036 13.3203 311.348 13.4297 311.552 13.4922C311.77 13.5391 312.106 13.625 312.559 13.75L313.38 13.9609C313.708 14.0547 314.661 14.2891 316.239 14.6641C317.833 15.0391 319.161 15.3984 320.223 15.7422V15.7188C323.552 16.8438 325.817 18.25 327.02 19.9375C328.239 21.6094 328.848 23.5625 328.848 25.7969C328.848 31.75 325.294 35.6094 318.184 37.375C316.122 37.8906 313.919 38.2578 311.575 38.4766C308.7 38.4766 305.856 38.0547 303.044 37.2109C300.231 36.3672 298.348 34.9922 297.395 33.0859C296.755 32.1641 296.325 31.3203 296.106 30.5547C295.888 29.7734 295.708 28.6875 295.567 27.2969C295.614 27.3125 295.684 27.3203 295.778 27.3203Z" fill="black"/>
</svg>
